******************************************************

Stoker 2013 1080p x264 2Audio- alrmothe

******************************************************

Title:Stoker  
YEAR: 2013
GENRE :Drama | Mystery | Thriller       
imdb URL http://www.imdb.com/title/tt1682180/
Overall bit rate: 10.3 Mbps
Format version: Version 4 / Version 2
File size:  7.10 GiB
Duration:  1h 38mn
Sub:Arabic,English,Spanish,French,Portuguese

The same subtitle format used on BDs/HD-DVDs
******************************************************

Video
Format: Matroska
Format : AVC 
Format/Info : Advanced Video Codec 
Format profile : High@L4.1 
Format settings, CABAC : Yes 
Format settings, ReFrames : 4 frames  
Codec ID : V_MPEG4/ISO/AVC  
Bit rate : 9150 kbps 
Width : 1920 pixels 
Height : 800 pixels 
Display aspect ratio : 2:40:1 
Frame rate : 23.976 fps 
Color space : YUV 
Chroma subsampling : 4:2:0 
Bit depth : 8 bits 
Scan type : Progressive 
Bits/(Pixel*Frame) : 0.248 
Stream size: 6.21



Audio 
Format: Ac3
Bit rate :640 Kbps
Channel(s) : 6 channels
Channel positions:Front: L C R, Side: L R, LFE
Sampling rate: 48.0 KHz
Bit depth: 16 bits
Compression mode: Lossy
Stream size: 453 MiB
Language : English


Audio #2
Format : AC3
Bit rate : 448 Kbps
Channel(s) : 6 channels
Channel positions : Front: L C R, Side: L R, LFE
Sampling rate : 48.0 KHz
Bit depth : 16 bits
Compression mode : Lossy
Stream size : 317 MiB 
Language : French
******************************************************



Screenshots 
http://img14.imageshack.us/img14/3827/vlcsnap2013060917h10m08.png 
http://img35.imageshack.us/img35/1138/vlcsnap2013060917h10m19.png 
http://img405.imageshack.us/img405/7880/vlcsnap2013060917h10m49.png 
http://img59.imageshack.us/img59/1479/vlcsnap2013060917h11m04.png

















.